<?xml version='1.0' encoding='utf-8'?>
<svg xmlns="http://www.w3.org/2000/svg" width="128" height="128" viewBox="0 0 128 128">
  <desc>WhiteSur derivative, GPL-3.0. Normalized for P4Desk; original sources retained in third_party/whitesur-p4desk.</desc>
  <defs>
    <linearGradient id="g0" gradientUnits="userSpaceOnUse" gradientTransform="matrix(7.5592 0 0 7.5592 0 0)" x1="7.937" y1="15.081" x2="7.937" y2="1.852" data-p4desk-matrix="0 0 -0.00999993432043 0 1.13999546451 0">
      <stop stop-color="#2b364a" stop-opacity="1" offset="0" />
      <stop stop-color="#4b5972" stop-opacity="1" offset="1" />
    </linearGradient>
    <linearGradient id="g1" gradientUnits="userSpaceOnUse" gradientTransform="matrix(2 0 0 2 0 0)" x1="30.5" y1="17" x2="30.5" y2="46" data-p4desk-matrix="0 0 0.0172413793103 0 -0.586206896552 0">
      <stop stop-color="#8094b2" stop-opacity="1" offset="0" />
      <stop stop-color="#adbcd5" stop-opacity="1" offset="1" />
    </linearGradient>
    <linearGradient id="g2" gradientUnits="userSpaceOnUse" gradientTransform="matrix(0.16144 -0.16532 0.16144 0.16532 0.32 81.3)" x1="140.45" y1="291.43" x2="217.69" y2="214.2" data-p4desk-matrix="2.59597530143e-06 0 -0.0391588974164 0 4.16084314289 0">
      <stop stop-color="#e6f0ff" stop-opacity="1" offset="0" />
      <stop stop-color="#e6f0ff" stop-opacity=".3" offset="1" />
    </linearGradient>
    <linearGradient id="g3" gradientUnits="userSpaceOnUse" gradientTransform="matrix(0.16144 -0.16532 0.16144 0.16532 0.32 81.3)" x1="299.57" y1="298.93" x2="373.31" y2="225.18" data-p4desk-matrix="-2.84749977127e-06 0 -0.0410121017117 0 3.33022063381 0">
      <stop stop-color="#e6f0ff" stop-opacity="1" offset="0" />
      <stop stop-color="#e6f0ff" stop-opacity=".3" offset="1" />
    </linearGradient>
  </defs>
  <rect x="8" y="7.938" width="112.004" height="112.004" rx="26.004" fill="url(#g0)" stroke="none" />
  <path d="M26 34 L26 38 L96 38 L96 34 L26 34 Z M26 42 L26 46 L88 46 L88 42 L26 42 Z M26 50 L26 76 L56 76 L56 50 L26 50 Z M60 50 L60 54 L96 54 L96 50 L60 50 Z M60 58 L60 62 L88 62 L88 58 L60 58 Z M60 65.996 L60 69.96 L96 69.96 L96 65.996 L60 65.996 Z M26 80 L26 84 L96 84 L96 80 L26 80 Z M26 88 L26 92 L58 92 L58 88 L26 88 Z" fill="url(#g1)" stroke="none" />
  <path d="M49 54 C47.343146 54 46 55.343146 46 57 C46 58.656854 47.343146 60 49 60 C50.656854 60 52 58.656854 52 57 C52 55.343146 50.656854 54 49 54 M38.48 55.4 L30 70.01 L49.28 70.01 L43.644 59.21 L42.056 62.254 L38.48 55.4 Z" fill="#e6f0ff" stroke="none" />
  <path d="M99.884891 50.14214 C99.868524 50.144833 99.852771 50.150547 99.838396 50.159002 C99.292729 50.46253 96.219719 52.696499 94.648262 53.932431 C92.326755 55.758225 89.775196 58.057331 87.896357 59.985292 C87.26997 60.628057 86.718329 61.229656 86.275176 61.758515 C84.004846 64.467944 81.323489 68.333622 79.498894 71.526943 C78.36171 73.517065 78.322158 73.573109 77.173835 74.83698 C75.765594 76.386194 75.116928 76.902653 72.851763 78.27762 C70.591442 79.64961 68.913919 80.808338 66.409339 82.728365 C63.898139 84.653186 62.757243 85.681311 60.690488 87.883373 C58.459872 90.259848 56.650775 92.483733 54.563194 95.415683 C53.73307 96.58152 52.249598 98.772836 52.112858 99.034868 L52.112374 99.035695 L52.112374 99.036026 C52.037788 99.180185 52.102041 99.252595 53.667202 100.774365 L54.977772 102.031459 L55.275952 102.007487 C55.440621 101.994262 55.723464 101.936069 55.905084 101.878042 C56.671116 101.633533 57.715795 102.282414 60.194867 103.95909 C62.929984 105.80869 64.098809 106.455752 65.779884 107.052062 C66.254728 107.220543 66.739539 107.35798 67.231391 107.463543 C66.877999 110.551886 66.898017 112.771803 67.370391 112.978453 C69.689476 113.992361 72.058124 111.245404 71.887644 107.97835 C71.878926 107.809393 71.871984 107.63994 71.864073 107.470817 C72.112918 107.418677 72.360097 107.358526 72.605244 107.290453 C73.809264 106.954192 75.127099 106.184958 76.62284 104.946546 C77.296852 104.388591 79.360055 102.199754 79.94689 101.420932 C81.126532 99.853533 82.118258 98.107258 82.619206 96.714106 Q84.247974 92.18252 81.272958 86.080889 C80.824155 85.161049 79.854708 83.4647 79.09707 82.242489 C79.672926 81.387289 80.272999 80.520516 80.893735 79.646469 C81.74485 79.011986 82.60378 78.38857 83.470318 77.77637 C84.637206 78.532213 86.185254 79.466767 87.03346 79.909163 C90.418857 81.675111 93.508657 82.324984 96.082172 81.812327 C97.878031 81.454574 99.603986 80.588132 101.799892 78.940884 C103.101745 77.964504 105.354478 75.68937 106.209142 74.488485 C107.243972 73.035323 107.791092 71.877587 108.089433 70.389045 C108.251358 70.397146 108.413444 70.403759 108.574884 70.412686 C111.765422 70.587429 114.447586 68.162185 113.457636 65.787528 C113.256321 65.304298 111.095123 65.282641 108.08685 65.642708 C107.876316 64.625318 107.555034 63.635313 107.129027 62.69125 C106.626464 61.578151 106.140368 60.729563 104.886948 58.776803 C103.697297 56.923401 102.746092 55.500657 102.601926 55.038257 C102.514587 54.756055 102.536866 54.456826 102.704118 53.67354 L102.810991 53.171298 L102.752873 53.10517 L102.764496 53.092936 L102.580778 52.9091 L102.161034 52.429672 C101.803121 52.021828 101.414858 51.583565 100.903739 51.051234 C100.170317 50.287952 99.998868 50.125277 99.885376 50.141974 L99.884891 50.14214 Z M99.180367 57.067725 C99.397665 57.109716 99.606407 57.162123 99.800458 57.228912 C100.582796 57.497722 101.250512 58.050222 102.55414 59.381874 C102.554194 59.381819 102.554248 59.381764 102.554302 59.381709 C104.716468 61.59055 106.030266 63.684823 106.542838 65.850019 C101.043062 66.666866 93.637486 68.53961 89.644268 71.100252 C88.175487 72.042245 86.548171 73.138317 84.826575 74.331266 C89.997014 67.594311 95.631432 61.067973 99.180367 57.067725 M94.038664 57.895482 C90.712839 62.373174 86.450016 68.182685 82.321995 74.031045 C82.241833 73.841344 82.177564 73.645009 82.129881 73.444159 C81.919202 72.532419 82.076122 71.57687 82.468421 70.456331 C83.425599 67.72045 85.275863 64.968698 87.534731 62.64463 C89.489124 60.633677 91.749768 58.943942 94.038664 57.895482 M105.230492 70.299607 C105.643201 70.304005 106.05586 70.312381 106.468414 70.324736 C106.177338 71.362449 105.688982 72.388921 104.994952 73.443828 C104.535816 74.14214 104.140934 74.605697 102.939175 75.865105 C101.325097 77.556659 101.177703 77.687758 100.087014 78.460464 C98.334744 79.701356 96.613632 80.395534 94.741413 80.4939 C92.869193 80.592265 90.876862 80.10672 88.52452 79.102401 C87.083829 78.48675 85.801511 77.739999 84.741173 76.892899 C87.050088 75.315416 89.247448 73.962272 91.214595 72.972832 C95.537473 70.798378 100.388261 70.253648 105.230331 70.299773 L105.230492 70.299607 Z M80.404572 76.121516 C80.541312 76.111101 80.681119 76.125319 80.827384 76.16202 C80.358562 76.833219 79.900072 77.49516 79.442713 78.157597 C78.802442 78.621485 78.162816 79.086035 77.51415 79.561164 C77.333176 78.831607 77.696093 78.283075 78.639387 77.317111 C79.385724 76.552836 79.878762 76.161689 80.404734 76.121351 L80.404572 76.121516 Z M74.243053 80.620535 C74.471491 80.629627 74.695569 80.659716 74.916581 80.713445 C75.154382 80.771472 75.382658 80.856777 75.606575 80.96407 C69.739039 85.303554 63.905727 89.793811 59.461445 93.25743 C59.918805 92.203185 60.550035 91.044291 61.235509 90.00013 C62.062082 88.741384 63.043637 87.535209 64.119312 86.4274 C66.486023 83.989922 69.306541 82.022448 72.00614 81.053673 C72.830937 80.757585 73.55774 80.593257 74.243053 80.620535 M78.31683 83.413451 C79.456112 84.890916 80.371477 86.745806 81.114747 89.038133 C81.664773 90.735143 81.920332 92.078368 81.906126 93.333808 C81.877551 95.908006 80.850792 98.293573 78.76079 100.800155 C76.56682 103.430396 74.157167 105.25057 71.805148 105.962272 C71.646291 100.541429 72.061676 95.04735 74.38625 90.201325 C75.374263 88.141438 76.731328 85.836877 78.31683 83.413451 M75.704569 83.673499 C74.543009 85.431347 73.475729 87.093309 72.558104 88.593753 C70.039156 92.713362 68.201968 100.37892 67.413657 106.023441 C67.015869 105.932575 66.625024 105.812349 66.244185 105.663704 L66.243863 105.663374 C64.441385 104.952002 62.94419 103.852954 60.963644 101.826792 C60.301902 101.150138 59.934464 100.769571 59.677129 100.46439 C59.420117 100.15954 59.273368 99.912387 59.132753 99.631839 C58.959205 99.285493 58.831991 98.891371 58.747396 98.465176 C62.641006 94.840369 69.066641 89.016146 75.704247 83.673499 L75.704569 83.673499 Z" fill="#000000" stroke="none" opacity="0.045" />
  <path d="M99.836 49.698 C99.836 49.698 80.618 74.948 72.556 88.134 C68.332 95.044 66.022 111.932 67.368 112.522 C69.688 113.536 72.056 110.788 71.886 107.522 C71.568 101.46 71.77 95.192 74.384 89.742 C80.812 76.34 102.762 52.63 102.762 52.63 L99.836 49.698 Z" fill="#9eb6d6" stroke="none" />
  <path d="M52.11 98.58 C52.11 98.58 76.766 78.9 89.642 70.642 C96.388 66.316 112.88 63.95 113.454 65.33 C114.444 67.704 111.762 70.13 108.572 69.954 C102.652 69.63 96.532 69.838 91.212 72.514 C78.124 79.098 54.976 101.576 54.976 101.576 L52.11 98.58 Z" fill="#9eb6d6" stroke="none" />
  <path d="M87.894 59.526 C87.331985 60.096848 86.791605 60.688598 86.274 61.3 C84.002 64.01 81.322 67.874 79.496 71.068 C78.36 73.058 78.32 73.116 77.172 74.378 C75.764 75.928 75.114 76.444 72.85 77.818 C70.59 79.192 68.91 80.35 66.408 82.27 C63.896 84.196 62.756 85.224 60.688 87.426 C58.458 89.802 56.648 92.026 54.562 94.96 C53.73 96.126 52.246 98.32 52.11 98.58 C52.036 98.724 52.098 98.794 53.666 100.32 L54.976 101.576 L55.276 101.552 C55.438 101.538 55.722 101.48 55.904 101.422 C56.67 101.178 57.714 101.826 60.192 103.502 C62.928 105.354 64.096 106.002 65.778 106.596 C67.971814 107.390109 70.359831 107.474071 72.604 106.836 C73.806 106.498 75.124 105.73 76.62 104.49 C77.294 103.932 79.358 101.744 79.944 100.964 C81.124 99.398 82.116 97.652 82.616 96.258 Q84.246 91.726 81.27 85.624 C80.666 84.384 79.11 81.724 78.41 80.732 C77.104 78.88 77.13 78.402 78.638 76.858 C80.13 75.33 80.61 75.294 82.366 76.574 C83.354 77.294 85.864 78.842 87.03 79.452 C90.416 81.218 93.506 81.868 96.08 81.354 C97.876 80.996 99.6 80.13 101.796 78.482 C103.098 77.506 105.352 75.232 106.206 74.03 C107.558 72.13 108.08 70.74 108.298 68.45 C108.478 66.548 108.054 64.29 107.126 62.232 C106.624 61.12 106.138 60.272 104.884 58.318 C103.694 56.464 102.744 55.042 102.598 54.578 C102.512 54.298 102.534 53.998 102.7 53.214 L102.808 52.712 L102.158 51.97 C101.749462 51.500273 101.330015 51.040148 100.9 50.59 C100.062 49.72 99.958 49.63 99.836 49.698 C99.29 50.002 96.216 52.238 94.646 53.472 C92.273681 55.350064 90.018782 57.371859 87.894 59.526 L87.894 59.526 Z M64.118 85.97 C66.484 83.532 69.306 81.564 72.004 80.596 C73.104 80.202 74.03 80.04 74.914 80.256 C75.798 80.472 76.562 81.036 77.404 81.902 C78.98 83.518 80.182 85.706 81.114 88.582 C81.664 90.278 81.918 91.622 81.904 92.878 C81.876 95.452 80.85 97.838 78.76 100.344 C76.512 103.038 74.038 104.888 71.632 105.56 C70.02 106.01 67.894 105.86 66.242 105.208 C64.442 104.496 62.942 103.398 60.962 101.37 C60.302 100.694 59.934 100.314 59.676 100.01 C59.460638 99.755743 59.277889 99.475573 59.132 99.176 C58.558 98.032 58.486 96.37 58.812 94.722 C59.08 93.368 60.086 91.292 61.234 89.542 C62.062 88.284 63.042 87.078 64.118 85.97 L64.118 85.97 Z M87.532 62.186 C89.792 59.862 92.458 57.966 95.106 56.994 C96.598 56.446 98.494 56.322 99.798 56.77 C100.578 57.038 101.248 57.59 102.552 58.922 C105.366 61.8 106.748 64.48 106.79 67.38 C106.816 69.31 106.23 71.1 104.992 72.986 C104.532 73.686 104.138 74.146 102.936 75.406 C101.322 77.098 101.176 77.23 100.084 78.002 C98.332 79.242 96.61 79.938 94.738 80.036 C92.866 80.136 90.874 79.65 88.522 78.646 C86.592 77.82 84.946 76.76 83.738 75.54 C82.894 74.686 82.338 73.898 82.128 72.986 C81.918 72.074 82.074 71.118 82.466 69.998 C83.422 67.262 85.274 64.51 87.532 62.186 L87.532 62.186 Z" fill="#d0e2fb" stroke="#d0e2fb" stroke-width="1" />
  <path d="M64.118 85.97 C63.044733 87.065774 62.078982 88.261911 61.234 89.542 C60.086 91.292 59.08 93.368 58.814 94.722 C58.486 96.372 58.558 98.032 59.132 99.176 C59.272 99.456 59.418 99.704 59.676 100.008 C59.934 100.314 60.302 100.694 60.962 101.37 C62.942 103.398 64.442 104.496 66.242 105.208 C67.894 105.86 70.02 106.012 71.632 105.56 C74.038 104.888 76.512 103.04 78.76 100.344 C80.85 97.838 81.876 95.452 81.904 92.878 C81.918 91.622 81.664 90.278 81.114 88.582 C80.182 85.706 78.98 83.518 77.404 81.902 C76.562 81.038 75.8 80.472 74.916 80.256 C74.03 80.04 73.104 80.202 72.004 80.596 C69.304 81.564 66.484 83.532 64.118 85.97" fill="url(#g2)" stroke="none" opacity="0.5" />
  <path d="M87.532 62.186 C85.272 64.51 83.424 67.262 82.466 69.998 C82.074 71.118 81.916 72.074 82.126 72.986 C82.336 73.898 82.894 74.686 83.738 75.54 C84.946 76.76 86.592 77.82 88.522 78.644 C90.874 79.65 92.866 80.134 94.738 80.036 C96.61 79.938 98.332 79.244 100.084 78.002 C101.174 77.23 101.324 77.098 102.936 75.408 C104.138 74.148 104.532 73.684 104.992 72.986 C106.232 71.102 106.816 69.308 106.788 67.378 C106.748 64.48 105.368 61.798 102.552 58.922 C101.248 57.59 100.58 57.038 99.798 56.77 C98.494 56.322 96.598 56.446 95.106 56.994 C92.458 57.964 89.79 59.862 87.532 62.186" fill="url(#g3)" stroke="none" opacity="0.5" />
  <path d="M81.004 94.29 C80.558 95.79 79.692 97.27 78.344 98.85 C76.118 101.464 73.69 103.206 71.452 103.82 C70.018 104.212 67.952 104.078 66.438 103.494 C66.437335 103.493332 66.436668 103.492665 66.436 103.492 C64.71 102.826 63.296 101.82 61.314 99.832 C60.8753 99.405121 60.449767 98.964915 60.038 98.512 C59.78085 98.223487 59.58187 97.888005 59.452 97.524 C59.518 98.024 59.638 98.47 59.812 98.816 C59.938 99.066 60.038 99.236 60.254 99.496 C60.482 99.764 60.842 100.138 61.504 100.816 C63.444 102.802 64.828 103.808 66.516 104.474 C66.517333 104.473996 66.518667 104.473996 66.52 104.474 C68 105.06 70.024 105.194 71.426 104.802 C73.618 104.188 75.994 102.446 78.174 99.834 C79.778 97.908 80.688 96.13 81.004 94.29 M105.756 68.506 C105.496 69.466 105.042 70.422 104.356 71.446 C103.922 72.096 103.592 72.48 102.378 73.73 C100.738 75.418 100.722 75.436 99.62 76.202 C97.946 77.368 96.392 77.972 94.694 78.062 C92.992 78.148 91.114 77.716 88.802 76.744 C86.932 75.958 85.362 74.954 84.248 73.848 C83.612 73.216 83.22 72.688 83.008 72.168 Q83.008 72.476 83.072 72.756 C83.224 73.412 83.638 74.038 84.42 74.83 C85.514 75.936 87.06 76.94 88.896 77.726 C91.172 78.698 93.016 79.13 94.69 79.042 C96.358 78.954 97.886 78.35 99.532 77.182 C100.614 76.416 100.632 76.4 102.244 74.712 C103.436 73.462 103.76 73.078 104.188 72.43 C105.09 71.056 105.59 69.804 105.756 68.506" fill="#e6f0ff" stroke="none" opacity="0.5" />
  <rect x="8.4" y="8.4" width="111.2" height="111.2" rx="25.6" fill="none" stroke="#d4e6ff" stroke-opacity="0.16" stroke-width="0.8" />
</svg>
