<?xml version='1.0' encoding='utf-8'?>
<svg xmlns="http://www.w3.org/2000/svg" width="128" height="128" viewBox="0 0 128 128">
  <desc>Colloid derivative, GPL-3.0. Normalized for P4Desk; original sources retained in third_party/colloid-p4desk.</desc>
  <defs />
  <rect x="8" y="7.938" width="112.004" height="112.004" rx="26.004" fill="#243c55" stroke="none" />
  <path d="M7.996 91.996 L7.996 93.996 C7.996 108.402 19.596 120.004 34.004 120.004 L93.996 120.004 C108.402 120.004 120.004 108.404 120.004 93.996 L120.004 91.996 C120.004 106.402 108.404 118 93.996 118 L34.004 118 C27.102221 118.015441 20.478616 115.280829 15.597934 110.400897 C10.717252 105.520965 7.981621 98.897781 7.996 91.996 Z" fill="#000000" stroke="none" opacity="0.055" />
  <path d="M7.996 36.008 L7.996 34.008 C7.996 19.602 19.596 8 34.004 8 L93.996 8 C108.402 8 120.004 19.6 120.004 34.008 L120.004 36.008 C120.004 21.602 108.404 10.004 93.996 10.004 L34.004 10.004 C27.102221 9.988559 20.478616 12.723171 15.597934 17.603103 C10.717252 22.483035 7.981621 29.106219 7.996 36.008 Z" fill="#c9e5ff" stroke="none" opacity="0.5" />
  <path d="M64 38.344 C50.406 38.344 37.564 44.342 28.77 54.804 C27.601365 56.194653 27.781347 58.269365 29.172 59.438 C30.562653 60.606635 32.637365 60.426653 33.806 59.036 C41.346 50.064 52.352 44.918 64.002 44.918 C75.65 44.918 86.658 50.068 94.198 59.036 C94.758649 59.704278 95.562273 60.121871 96.43138 60.196548 C97.300487 60.271225 98.163568 59.996842 98.83 59.434 C100.22 58.268 100.4 56.194 99.232 54.804 C90.44 44.342 77.596 38.344 64.002 38.344 L64 38.344 Z M64 52.27 C54.285203 52.271868 45.070401 56.577529 38.836 64.028 C38.274878 64.694714 38.001938 65.557211 38.077347 66.425358 C38.152757 67.293505 38.570325 68.096022 39.238 68.656 C39.904356 69.220265 40.768299 69.495355 41.638234 69.420264 C42.508169 69.345172 43.312193 68.926106 43.872 68.256 C48.896 62.274 56.236 58.844 64 58.844 C71.764 58.844 79.1 62.274 84.128 68.254 C84.688081 68.922864 85.491414 69.34122 86.360541 69.416649 C87.229667 69.492078 88.093063 69.218375 88.76 68.656 C90.152 67.488 90.33 65.416 89.162 64.028 C82.878 56.556 73.71 52.268 63.998 52.268 L64 52.27 Z M64 66.73 C58.17082 66.73043 52.641631 69.314478 48.902 73.786 C48.340878 74.452714 48.067938 75.315211 48.143347 76.183358 C48.218757 77.051505 48.636325 77.854022 49.304 78.414 C49.969883 78.977242 50.832769 79.251906 51.701713 79.177211 C52.570656 79.102515 53.374009 78.68462 53.934 78.016 C56.426686 75.033094 60.112688 73.307638 64 73.304 C67.88 73.304 71.548 75.024 74.062 78.016 C74.622112 78.685636 75.426068 79.104353 76.295838 79.17943 C77.165609 79.254507 78.029424 78.97975 78.696 78.416 C80.086 77.246 80.266 75.176 79.096 73.786 C75.356818 69.315015 69.828481 66.731022 64 66.73 Z M64.204 79.188 C61.468 79.222 58.678 81.2 58.586 84.242 C58.665724 87.174769 61.066147 89.510827 64 89.510827 C66.933853 89.510827 69.334276 87.174769 69.414 84.242 C68.986 80.64 66.616 79.158 64.202 79.188 L64.204 79.188 Z" fill="#88c7ff" stroke="none" />
  <rect x="8.4" y="8.4" width="111.2" height="111.2" rx="25.6" fill="none" stroke="#dce9ff" stroke-opacity="0.13" stroke-width="0.8" />
</svg>
